<?xml version="1.0" standalone="no"?>
<!DOCTYPE svg PUBLIC "-//W3C//DTD SVG 20010904//EN"
 "http://www.w3.org/TR/2001/REC-SVG-20010904/DTD/svg10.dtd">
<svg version="1.0" xmlns="http://www.w3.org/2000/svg"
 width="900.000000pt" height="802.000000pt" viewBox="0 0 900.000000 802.000000"
 preserveAspectRatio="xMidYMid meet">

<g transform="translate(0.000000,802.000000) scale(0.100000,-0.100000)"
fill="#000000" stroke="none">
<path d="M3975 8008 c-124 -12 -239 -37 -365 -80 -457 -156 -821 -490 -1088
-998 -145 -277 -264 -673 -279 -930 -6 -103 -5 -108 15 -119 12 -6 37 -10 57
-8 30 4 35 1 36 -17 0 -11 2 -32 4 -46 1 -14 6 -104 10 -200 4 -96 8 -177 10
-180 11 -21 -22 -46 -110 -81 -165 -66 -246 -109 -298 -157 -74 -70 -78 -83
-71 -214 3 -62 10 -131 16 -153 20 -82 152 -316 335 -599 61 -94 108 -151 170
-211 l86 -82 -79 -17 c-293 -62 -453 -121 -508 -187 -23 -27 -26 -38 -21 -68
16 -85 94 -144 272 -206 7 -2 -3 -30 -28 -77 -55 -102 -97 -242 -119 -388 -11
-69 -24 -150 -29 -180 -6 -30 -18 -122 -26 -204 -8 -82 -24 -183 -34 -225 -42
-166 -153 -966 -168 -1207 -6 -113 10 -170 51 -178 11 -3 93 -7 181 -11 88 -3
230 -8 315 -12 l155 -6 95 -51 c52 -28 115 -61 140 -73 106 -50 242 -112 339
-153 l103 -44 -7 -105 c-12 -178 -64 -294 -166 -368 -27 -19 -53 -43 -58 -52
-14 -25 12 -75 52 -99 32 -21 47 -22 243 -22 322 0 473 27 542 96 l35 35 -6
87 c-4 71 4 177 16 188 1 1 31 -4 67 -11 72 -16 375 -21 384 -7 3 5 56 12 118
15 148 8 377 49 461 82 11 5 17 2 17 -6 0 -8 20 -67 45 -131 25 -67 45 -134
45 -156 0 -88 69 -135 246 -168 114 -21 669 -33 703 -15 30 16 27 52 -13 148
-27 65 -45 92 -99 144 -76 76 -97 128 -97 246 0 54 -6 86 -24 126 l-23 53 84
32 c117 46 248 123 316 187 32 30 60 55 63 55 2 0 72 11 156 25 204 34 463 48
741 42 l227 -5 18 31 c26 49 23 259 -6 402 -60 286 -190 810 -252 1010 -76
246 -103 460 -94 745 7 221 2 260 -40 323 l-25 36 53 30 c59 34 134 110 161
161 10 19 18 56 19 84 1 46 -2 52 -32 72 -93 64 -393 90 -686 60 -88 -9 -172
-16 -187 -16 l-28 0 19 33 c67 116 296 567 395 779 199 425 219 493 173 581
-14 27 -23 60 -23 92 0 68 -19 77 -145 70 -52 -3 -111 -8 -131 -11 l-37 -5 -7
56 c-6 49 -4 58 17 84 31 37 100 171 124 241 16 46 19 86 19 250 0 210 -9 274
-51 347 -23 39 -49 57 -84 58 -18 0 -29 53 -29 146 -1 60 -6 76 -60 182 -115
225 -244 391 -404 520 -124 101 -198 147 -352 222 -268 130 -534 214 -1015
320 -232 52 -357 62 -545 43z m592 -107 c375 -79 809 -270 1184 -522 173 -116
278 -238 374 -434 44 -92 155 -375 155 -398 0 -3 -21 -18 -47 -33 -85 -49
-306 -201 -390 -269 -92 -73 -172 -159 -210 -222 -14 -24 -31 -43 -39 -43 -13
0 -15 -55 -12 -398 l3 -399 -129 -41 c-71 -23 -131 -40 -133 -39 -1 2 -5 68
-8 148 -11 294 -45 603 -90 821 -8 38 -15 73 -15 77 0 5 84 11 188 15 207 8
308 14 335 22 12 4 17 16 17 46 l0 41 -247 -6 c-137 -4 -324 -10 -418 -13
-195 -7 -331 3 -603 46 -541 84 -1210 253 -1312 330 -19 14 -22 26 -21 86 2
240 162 581 376 805 111 116 265 233 353 268 33 14 43 38 19 47 -16 6 -118
-31 -197 -71 -214 -108 -408 -320 -541 -590 -70 -142 -106 -274 -116 -419 l-6
-101 -101 -134 c-197 -262 -367 -422 -545 -512 l-56 -29 -3 46 c-6 91 65 374
153 607 31 83 59 142 143 302 77 148 266 400 378 506 283 265 622 424 1024
479 119 16 423 5 537 -19z m-1404 -1375 c189 -113 705 -248 1232 -321 283 -39
543 -62 646 -58 l107 5 1 -71 c0 -38 15 -195 32 -348 19 -171 33 -355 36 -478
l5 -200 -73 -36 c-139 -69 -247 -166 -289 -262 -11 -24 -26 -89 -35 -145 -14
-95 -81 -376 -103 -433 l-11 -27 -188 -7 c-103 -4 -195 -9 -205 -10 -9 -2
-106 -7 -215 -11 -161 -5 -219 -3 -312 10 -209 31 -423 116 -586 234 l-79 57
-47 125 c-56 153 -89 226 -137 308 l-37 63 -74 -2 -75 -2 -73 152 c-124 261
-152 377 -160 667 l-5 212 58 43 c132 97 371 348 465 488 30 44 57 80 60 81 4
0 32 -15 62 -34z m3226 -159 c13 -56 26 -145 29 -198 4 -91 3 -101 -38 -225
-66 -203 -123 -295 -209 -338 -54 -27 -236 -88 -254 -84 -7 1 -21 -1 -32 -5
-16 -5 -21 -17 -23 -59 -1 -29 -8 -87 -15 -128 l-13 -75 -68 -18 c-37 -10 -69
-17 -71 -15 -4 3 -25 563 -25 656 0 58 1 60 61 126 67 73 166 153 324 261 55
38 136 94 180 124 82 57 116 79 125 80 3 1 16 -45 29 -102z m-106 -884 c-12
-76 -20 -103 -32 -106 -9 -3 -79 -23 -155 -46 -76 -22 -144 -41 -150 -41 -8 0
-9 21 -2 75 l10 75 40 0 c79 1 215 63 281 128 11 11 21 19 22 18 1 -1 -5 -47
-14 -103z m192 -34 c-16 -5 -36 -7 -43 -4 -8 3 -10 0 -6 -7 5 -8 2 -9 -10 -5
-10 4 -15 3 -11 -3 5 -8 -24 -30 -39 -30 -8 0 -7 45 1 53 3 4 36 7 72 6 56 -1
61 -2 36 -10z m-3968 -143 c20 -50 66 -157 104 -238 38 -82 69 -150 69 -153 0
-3 -44 -5 -99 -5 l-98 0 -7 138 c-13 267 -16 377 -10 362 3 -8 22 -55 41 -104z
m4100 21 c-14 -19 -38 -39 -54 -45 -287 -109 -400 -137 -798 -202 -165 -27
-419 -92 -495 -126 -31 -14 -75 -43 -95 -64 -21 -22 -43 -36 -48 -33 -6 3 -7
2 -4 -4 9 -14 -22 -55 -35 -47 -7 4 -8 2 -4 -4 9 -16 -43 -104 -56 -95 -6 3
-8 1 -4 -5 3 -5 -8 -46 -25 -89 -32 -77 -38 -115 -69 -393 -17 -153 -73 -405
-89 -396 -3 2 -6 -8 -7 -22 -1 -30 -66 -166 -92 -195 -16 -18 -17 -18 -34 3
-10 12 -18 18 -18 12 0 -5 7 -15 15 -22 23 -19 19 -25 -41 -66 l-56 -39 -341
-3 c-303 -3 -346 -1 -379 14 -21 9 -35 21 -31 27 3 6 1 7 -5 3 -6 -3 -23 -1
-39 5 -30 12 -191 28 -195 19 -8 -15 -66 -36 -83 -29 -11 4 -47 8 -81 8 -88 1
-99 -13 -101 -140 0 -54 2 -97 5 -96 4 1 24 -11 45 -27 32 -24 35 -31 25 -45
-11 -14 -11 -14 2 -4 11 9 19 9 30 0 20 -16 52 -86 44 -98 -3 -5 -2 -8 3 -7
11 3 75 -67 68 -74 -3 -3 1 -5 7 -6 7 0 36 -9 65 -20 38 -13 50 -22 43 -30 -7
-9 -7 -9 2 -2 7 6 33 10 58 10 39 0 49 -4 67 -28 25 -34 67 -47 193 -63 120
-14 482 -3 595 18 44 9 92 16 107 17 14 1 24 4 21 9 -2 4 2 7 9 7 8 0 46 16
87 35 40 19 78 32 83 28 7 -4 8 -1 3 7 -6 10 -4 12 9 7 9 -4 15 -3 11 2 -3 6
14 23 37 39 24 16 86 75 138 131 110 116 127 122 187 67 34 -31 36 -35 23 -52
-14 -17 -13 -18 2 -6 14 11 18 11 26 -5 6 -10 12 -27 13 -38 2 -11 9 -25 15
-32 18 -19 106 -293 100 -309 -3 -8 -2 -13 3 -10 13 9 34 -120 27 -166 -8 -52
-58 -151 -101 -203 -51 -61 -127 -142 -119 -126 4 8 3 12 -3 8 -5 -3 -7 -21
-5 -40 4 -32 5 -34 50 -35 26 -2 72 4 102 12 30 8 58 12 62 10 5 -3 8 -1 8 4
0 4 18 18 40 31 21 12 54 37 71 56 18 19 37 31 42 28 6 -3 7 -1 3 5 -3 6 5 27
19 48 14 20 25 41 25 46 0 5 5 6 12 2 6 -4 8 -3 4 4 -9 14 14 63 27 55 6 -3 7
-1 3 6 -8 12 13 81 25 81 4 0 5 10 1 22 -4 16 -2 19 8 13 9 -5 11 -4 6 3 -4 6
1 51 10 99 23 125 21 280 -5 368 -29 97 -27 133 9 183 32 44 141 104 192 106
15 1 28 5 28 10 0 4 9 6 20 3 11 -3 18 -2 16 2 -7 10 143 53 157 45 7 -4 9 -3
4 1 -9 11 251 107 265 98 6 -3 8 -1 5 4 -4 6 11 18 36 28 63 24 171 91 206
126 52 51 39 119 -26 136 -26 6 -308 -1 -543 -13 -81 -5 -112 -3 -105 4 15 16
437 36 600 28 141 -6 257 -20 282 -35 11 -6 5 -21 -26 -67 -45 -68 -122 -132
-225 -188 -87 -47 -256 -117 -266 -111 -5 3 -10 1 -12 -4 -5 -14 -197 -83
-210 -75 -6 4 -8 3 -5 -3 4 -6 -16 -20 -46 -33 -72 -31 -179 -96 -207 -125
-13 -13 -27 -22 -32 -19 -5 3 -7 2 -6 -3 4 -13 -24 -73 -32 -68 -4 3 -5 -53
-2 -123 13 -274 5 -374 -39 -467 -21 -45 -22 -46 -43 -28 -21 18 -21 18 -3 -4
16 -18 17 -25 6 -44 -19 -36 -100 -119 -110 -113 -5 3 -8 0 -7 -8 2 -7 -3 -12
-10 -10 -8 1 -11 -2 -8 -7 8 -12 -89 -76 -196 -128 l-88 -43 -127 0 -128 1 35
29 c19 16 42 27 50 24 8 -3 11 -2 8 2 -4 4 24 40 62 82 69 74 110 143 110 182
0 12 3 19 8 16 7 -4 2 96 -18 336 -6 86 -16 135 -34 180 -18 43 -22 66 -15 74
7 8 6 15 -2 20 -7 4 -9 3 -5 -4 15 -25 -13 -19 -32 8 -24 32 -28 45 -10 34 7
-5 8 -3 3 6 -6 10 -12 8 -25 -8 -10 -12 -21 -18 -25 -14 -3 4 -5 2 -3 -3 5
-17 -53 -85 -71 -83 -9 2 -15 -2 -14 -8 1 -6 -8 -21 -20 -32 -33 -31 -139 -92
-148 -86 -5 3 -9 1 -9 -4 0 -5 -24 -19 -52 -30 -132 -52 -238 -68 -513 -76
-244 -8 -420 10 -593 60 -47 13 -52 17 -40 31 12 15 11 15 -8 3 -49 -31 -264
111 -355 234 -16 21 -26 42 -23 47 3 5 0 9 -6 9 -7 0 -9 7 -6 16 3 8 2 12 -4
9 -12 -8 -43 53 -36 71 3 8 2 13 -3 10 -14 -9 -60 169 -61 238 l0 39 128 -7
c181 -11 429 -33 440 -40 17 -10 193 -25 302 -25 93 -1 162 5 433 35 69 7 69
7 90 50 11 24 24 41 28 39 4 -3 6 1 5 8 -2 19 76 207 85 202 4 -3 5 5 2 17 -4
19 -3 21 7 8 10 -13 11 -12 6 3 -3 9 12 87 34 172 21 85 46 193 56 240 9 47
19 85 23 85 3 0 6 12 7 28 0 15 8 79 17 142 17 122 43 214 58 204 5 -3 6 2 3
10 -8 22 68 91 139 124 34 17 91 39 127 50 138 44 476 136 502 136 14 1 25 3
23 7 -2 3 42 18 98 33 56 15 158 45 225 67 68 22 132 41 143 42 10 1 19 5 19
10 0 5 9 7 20 4 11 -3 18 -2 16 2 -7 11 142 63 156 55 6 -4 8 -3 5 3 -8 13 91
55 107 46 6 -3 7 -2 3 2 -4 5 7 17 25 26 l33 17 9 -29 c7 -23 4 -34 -17 -62z
m-4208 -78 c1 -23 -6 -29 -61 -49 -35 -12 -89 -38 -121 -56 -32 -19 -63 -31
-69 -28 -6 4 -8 2 -5 -3 4 -6 -8 -22 -27 -36 -18 -14 -41 -42 -50 -62 l-17
-36 -32 19 c-18 10 -31 26 -31 35 1 9 -3 14 -8 11 -6 -4 -8 -1 -6 7 3 8 10 13
16 12 6 -2 9 3 6 11 -3 7 11 25 31 40 34 26 38 27 54 12 15 -14 18 -14 18 -1
0 8 -4 12 -8 9 -4 -2 -10 0 -14 5 -8 14 30 32 52 25 13 -4 14 -3 5 3 -9 7 5
18 50 40 35 17 95 49 133 71 68 39 70 39 77 18 3 -11 6 -33 7 -47z m4142 -169
c-160 -265 -552 -1074 -625 -1290 -18 -51 -21 -90 -7 -90 5 0 26 23 46 50 36
49 38 50 91 52 30 1 66 2 82 3 15 1 110 5 212 10 102 4 213 8 247 10 35 2 65
0 68 -5 8 -14 -137 -79 -380 -170 -120 -45 -243 -92 -271 -105 -76 -34 -164
-96 -202 -144 -63 -79 -67 -97 -64 -292 1 -97 -2 -207 -7 -245 -14 -96 -91
-270 -143 -323 -23 -23 -42 -40 -44 -39 -1 2 4 35 12 73 20 103 17 187 -11
310 -32 141 -58 220 -107 323 -77 163 -173 225 -271 176 -18 -9 -75 -60 -128
-114 -149 -149 -268 -218 -444 -255 -107 -23 -414 -32 -515 -15 -79 12 -79 12
-122 24 l-27 8 36 36 c76 76 101 202 57 290 l-22 43 317 -3 c312 -3 317 -3
375 21 126 51 174 134 211 368 42 265 66 394 92 483 36 126 117 349 153 420
35 68 99 144 142 166 15 8 121 30 236 49 377 64 364 61 707 166 138 43 314
107 350 128 17 10 31 17 33 16 1 -1 -34 -62 -77 -135z m-4377 -234 c43 -9 98
-16 122 -16 24 0 44 -3 44 -7 0 -5 123 -5 272 -1 150 4 276 4 280 0 3 -4 25
-74 47 -157 22 -82 49 -177 61 -209 11 -33 18 -69 14 -80 -3 -14 -2 -17 3 -9
6 9 13 1 22 -25 7 -20 29 -70 47 -111 19 -40 31 -77 28 -82 -3 -5 0 -9 5 -9
15 0 62 -100 54 -113 -3 -6 -1 -7 5 -4 5 4 21 -12 36 -37 14 -24 45 -68 70
-98 25 -31 43 -58 41 -62 -3 -3 -2 -4 2 -1 9 7 83 -66 77 -77 -3 -4 1 -5 9 -2
8 3 19 -1 25 -8 8 -10 1 -12 -34 -9 -42 3 -48 7 -109 85 -69 86 -145 192 -145
202 0 3 -9 19 -21 35 -11 16 -17 34 -13 40 4 7 3 9 -3 6 -12 -8 -46 61 -37 75
4 6 2 8 -3 5 -14 -9 -68 117 -58 134 6 8 4 10 -5 4 -10 -6 -12 -4 -7 8 3 9 2
17 -2 19 -4 2 -31 73 -60 159 -50 151 -91 229 -127 243 -8 3 -12 11 -8 17 4 7
3 9 -3 6 -5 -3 -29 2 -54 11 -37 14 -82 16 -289 15 -135 -1 -277 -4 -316 -8
l-72 -6 -41 39 c-27 26 -41 47 -41 65 l0 26 53 -23 c28 -13 87 -31 131 -40z
m438 -107 c73 -14 106 -28 157 -63 50 -36 75 -81 85 -151 23 -157 84 -325 183
-497 20 -35 45 -80 56 -101 12 -20 45 -69 74 -108 29 -39 53 -72 53 -75 0 -2
-16 -4 -35 -4 l-35 0 0 -54 c0 -82 19 -202 45 -283 l23 -73 -44 0 c-117 0
-220 -118 -274 -313 -24 -86 -26 -223 -5 -282 8 -22 15 -41 15 -43 1 -13 -109
84 -114 101 -20 77 4 190 69 317 67 130 79 168 79 265 2 165 -43 199 -315 239
-164 24 -266 46 -322 68 -27 10 -23 12 62 34 55 14 124 41 176 69 l85 47 28
-24 c149 -120 226 -181 275 -213 50 -33 60 -37 82 -27 14 6 25 15 25 20 0 13
-110 115 -220 203 -340 272 -405 345 -561 629 -66 122 -104 181 -138 218 -19
19 -20 22 -5 22 30 0 55 30 43 51 -9 17 -5 19 43 19 62 0 191 11 197 16 9 8
163 3 213 -7z m-512 -1061 c0 -23 20 -63 20 -42 0 8 38 4 115 -12 63 -13 195
-35 293 -50 113 -17 200 -35 240 -51 67 -27 117 -74 109 -105 -3 -11 -1 -15 5
-12 7 5 8 -9 4 -42 -10 -72 -23 -108 -78 -218 -86 -171 -106 -309 -63 -413 8
-19 12 -39 9 -44 -3 -5 -1 -8 3 -7 5 2 24 -12 43 -30 42 -42 62 -50 141 -53
63 -3 64 -2 67 25 3 24 5 26 20 14 15 -12 16 -11 3 4 -7 10 -18 15 -24 11 -6
-4 -8 2 -5 15 4 12 3 20 -2 17 -9 -6 -23 61 -15 74 3 5 0 11 -5 13 -16 5 -29
161 -20 235 12 94 47 139 177 227 24 16 47 25 54 20 7 -4 10 -3 5 4 -8 13 30
36 45 26 6 -3 8 -13 5 -21 -3 -8 -2 -12 2 -9 4 2 12 -6 18 -19 11 -22 9 -24
-35 -35 -25 -6 -63 -21 -84 -33 -82 -46 -133 -183 -124 -336 4 -73 10 -94 47
-169 24 -47 51 -95 61 -106 10 -10 16 -22 14 -26 -3 -4 3 -14 13 -21 16 -13
16 -13 2 6 -11 15 -7 14 16 -5 17 -14 27 -27 21 -29 -5 -2 -12 0 -16 5 -3 5
-31 10 -62 11 -117 6 -329 80 -321 114 2 8 0 11 -3 7 -20 -20 -104 79 -89 104
4 6 3 8 -3 5 -14 -9 -23 41 -23 132 0 95 9 153 23 144 6 -4 7 -1 2 6 -9 15 14
103 25 96 5 -3 6 5 2 17 -4 16 -2 19 8 13 8 -5 11 -4 6 3 -3 6 10 45 29 86 53
113 54 128 13 158 -49 36 -119 62 -337 124 -246 69 -292 84 -287 92 2 4 -8 7
-22 8 -30 1 -117 38 -127 54 -6 9 46 37 73 39 6 1 12 -9 12 -21z m1394 -230
c-9 -17 -19 -52 -23 -77 l-7 -46 -28 58 c-15 33 -25 65 -22 72 3 8 20 15 38
18 18 2 39 5 46 5 9 2 8 -6 -4 -30z m-110 -361 c57 -59 146 -128 200 -154 l36
-17 0 -88 c0 -48 -3 -88 -7 -89 -58 -6 -83 -34 -83 -94 0 -47 33 -98 70 -110
18 -6 20 -16 20 -116 l0 -109 -47 0 c-27 0 -53 -4 -59 -8 -6 -4 -12 -34 -13
-67 -3 -70 16 -103 77 -134 l37 -19 -3 -66 -4 -67 -36 7 c-65 12 -165 45 -230
77 -119 58 -197 148 -227 262 -28 108 -39 100 150 97 l165 -4 11 26 c7 14 10
27 8 29 -2 2 -36 22 -76 45 -137 80 -229 207 -254 350 -15 87 -7 120 44 169
41 39 158 133 166 133 2 0 27 -24 55 -53z m1883 -117 c12 -47 17 -103 17 -200
1 -126 -1 -139 -26 -192 -41 -88 -77 -134 -192 -248 -124 -122 -128 -135 -58
-185 43 -29 47 -30 178 -33 189 -5 343 29 447 101 45 31 42 13 -4 -27 -98 -84
-314 -168 -617 -241 -80 -19 -151 -35 -159 -35 -13 0 -15 17 -10 117 l5 117
36 29 c49 40 66 75 66 142 0 65 -22 95 -70 95 l-30 0 0 89 0 89 33 20 c71 45
88 124 36 173 -17 16 -39 29 -48 29 -9 1 16 13 54 29 112 44 198 97 265 162
25 24 48 42 52 39 4 -3 15 -34 25 -70z m-1486 -126 c41 -14 81 -27 89 -29 8
-2 15 -4 15 -5 0 -1 11 -3 25 -5 14 -1 70 -10 125 -19 55 -9 114 -16 132 -16
27 0 31 -3 26 -17 -5 -15 -3 -16 8 -5 8 8 43 12 103 11 85 -1 88 -2 41 -10
-147 -25 -336 -40 -431 -33 -56 3 -106 9 -112 13 -14 8 -4 51 12 51 6 0 4 5
-4 10 -13 8 -13 10 2 10 9 0 19 -6 21 -12 3 -8 6 -6 6 5 1 9 -6 17 -14 17 -8
0 -15 5 -15 11 0 5 -5 7 -10 4 -6 -4 -8 -11 -5 -16 4 -5 -8 -9 -24 -9 -17 0
-31 -4 -31 -9 0 -19 12 -41 23 -41 7 0 7 4 -1 12 -19 19 -14 28 12 28 23 0 24
-2 15 -29 -9 -26 -15 -30 -50 -29 -31 0 -39 4 -39 19 0 21 11 24 27 8 7 -7 9
-2 5 18 -3 15 -7 22 -9 16 -10 -29 -21 -10 -19 32 0 25 1 45 2 45 0 0 34 -12
75 -26z m939 -324 c-13 -9 -13 -10 0 -11 8 0 0 -7 -17 -15 -39 -17 -44 -28 -7
-14 35 14 34 15 34 -30 0 -39 -1 -40 -35 -40 -19 0 -77 -7 -128 -15 -128 -20
-359 -46 -365 -41 -2 3 -14 1 -26 -3 -18 -7 -107 -15 -391 -35 -22 -2 -46 2
-54 8 -10 7 -13 8 -8 0 3 -6 0 -11 -7 -11 -8 0 -13 18 -14 54 -1 55 4 62 28
41 12 -11 12 -10 0 5 -12 16 -12 20 1 28 8 5 9 9 4 9 -6 0 -15 -4 -20 -9 -6
-6 -11 3 -12 25 -1 32 9 45 21 25 3 -5 15 -7 27 -4 19 5 20 4 8 -15 -12 -19
-11 -24 5 -39 18 -17 18 -17 5 5 -12 19 -12 24 1 32 26 17 50 12 43 -7 -6 -16
-5 -16 10 -5 11 10 30 12 64 7 26 -4 120 -10 207 -14 143 -5 158 -8 145 -21
-9 -8 -16 -23 -16 -33 0 -15 12 -14 12 1 1 4 6 17 13 29 13 24 38 31 127 38
69 5 197 28 270 49 62 18 97 20 75 6z m1285 -222 c161 -104 305 -147 513 -155
119 -5 142 -8 138 -20 -4 -8 -6 -21 -6 -29 0 -20 -240 -20 -320 1 -125 32
-238 90 -385 198 -44 32 -91 66 -105 76 -22 16 -23 20 -11 34 12 15 18 13 60
-22 25 -21 78 -59 116 -83z m-2946 34 c0 -12 -49 -41 -158 -95 -238 -117 -254
-122 -396 -122 -128 1 -185 17 -185 53 0 15 15 17 152 17 138 1 162 4 243 28
116 36 239 87 290 119 43 27 55 27 54 0z m-173 -230 c6 -4 14 -44 17 -88 6
-74 4 -86 -19 -130 -14 -27 -38 -59 -54 -72 l-29 -23 -7 36 c-3 20 -14 41 -24
47 -16 10 -12 16 31 50 54 43 56 58 18 126 l-19 33 33 14 c38 17 39 17 53 7z
m1851 -33 c-2 -22 1 -43 6 -46 5 -3 7 -26 6 -52 -4 -77 31 -161 66 -161 12 0
27 -6 34 -12 8 -8 11 -8 8 -2 -9 15 46 26 121 23 41 -1 88 9 170 35 62 20 122
41 133 47 11 6 27 8 35 5 8 -3 13 -2 10 3 -6 10 24 25 32 16 3 -3 0 -5 -7 -5
-7 0 -10 -4 -7 -9 9 -14 -83 -78 -175 -123 -152 -74 -463 -166 -705 -207 -315
-55 -569 -51 -787 12 -136 39 -211 81 -293 163 -60 60 -124 167 -124 206 0 18
1 18 25 1 13 -10 23 -23 21 -29 -2 -6 2 -11 10 -11 7 0 11 4 8 9 -3 4 2 5 10
2 9 -3 16 -9 16 -13 0 -3 12 -12 28 -18 117 -52 112 -50 142 -52 11 0 20 -5
20 -9 0 -11 -38 -12 -66 -1 -15 5 -23 5 -19 0 11 -18 122 -35 131 -19 4 7 3 8
-4 4 -7 -4 -18 -4 -24 1 -8 5 18 10 61 13 71 5 75 6 82 33 4 15 3 27 -2 27 -5
0 -9 39 -9 86 l0 86 28 -6 c15 -3 129 -9 255 -13 184 -5 227 -9 227 -20 0 -11
-5 -11 -22 -3 -21 10 -21 10 -5 -3 9 -8 17 -19 17 -25 0 -6 5 -14 12 -18 7 -4
8 -3 4 4 -4 7 -1 12 6 13 11 0 11 2 0 6 -10 4 -9 9 5 20 10 8 12 12 6 8 -7 -3
-13 -1 -13 4 0 6 6 11 13 11 49 1 201 14 300 26 65 8 123 12 128 9 5 -4 9 -2
9 4 0 8 16 13 67 20 8 0 11 -13 10 -40z m1305 -110 c37 -8 63 -22 87 -46 33
-33 33 -34 27 -101 -6 -58 -4 -70 11 -84 27 -24 86 -37 200 -44 65 -4 103 -11
103 -18 0 -22 -41 -77 -72 -97 -47 -29 -197 -24 -249 9 -59 36 -63 52 -49 195
7 69 10 133 7 141 -4 9 -18 16 -32 16 -21 0 -29 -8 -42 -37 -8 -21 -20 -44
-25 -50 -24 -30 -78 40 -78 102 0 21 5 25 30 25 16 0 53 -5 82 -11z m-454
-268 c137 -161 252 -316 318 -427 31 -52 55 -96 53 -98 -4 -3 -110 -44 -254
-98 -75 -28 -333 -118 -340 -118 -1 0 -8 21 -15 48 -54 203 -124 392 -201 543
-28 55 -50 101 -48 102 2 1 35 18 73 37 73 37 207 131 241 169 l20 23 28 -34
c16 -18 72 -84 125 -147z m-2843 42 c19 -17 39 -23 74 -23 l48 0 -8 -47 c-15
-76 -29 -85 -155 -90 -99 -4 -112 -2 -143 17 l-34 21 42 21 c43 21 83 76 97
133 4 17 14 41 23 54 l16 25 7 -45 c5 -29 17 -52 33 -66z m521 16 c16 -23 52
-60 80 -83 l51 -42 -29 -35 c-69 -81 -114 -214 -146 -425 l-18 -119 -94 -3
c-81 -3 -180 11 -180 25 0 8 145 347 209 488 15 33 43 99 62 147 19 48 35 88
35 88 1 0 14 -19 30 -41z m1794 -151 c0 -6 33 -95 74 -197 41 -102 90 -240
110 -306 57 -197 64 -213 102 -217 18 -2 31 -2 29 1 -6 5 211 64 242 65 11 1
19 4 17 7 -2 3 16 12 39 19 58 17 289 109 303 121 17 14 30 -67 14 -86 -7 -8
-16 -12 -21 -9 -5 3 -8 0 -7 -7 2 -6 -28 -24 -67 -40 -72 -29 -574 -171 -610
-173 -11 -1 -23 -5 -27 -11 -8 -11 -8 -12 -48 130 -81 282 -135 434 -204 570
-28 55 -51 104 -51 109 0 10 87 46 98 39 4 -2 7 -9 7 -15z m-1583 -26 l22 -14
-23 -36 c-59 -95 -110 -288 -132 -499 -4 -37 -11 -60 -18 -59 -6 2 -8 1 -3 -1
4 -3 7 -13 7 -24 0 -20 -7 -21 -175 -22 -66 -1 -201 23 -191 34 3 2 -13 3 -35
1 -39 -4 -45 2 -33 31 5 14 10 14 46 1 27 -9 84 -14 174 -14 l133 0 15 53 c9
28 18 79 21 112 3 33 8 78 11 100 13 84 131 368 149 358 5 -4 20 -13 32 -21z
m191 -76 c22 -8 88 -23 145 -32 l104 -18 -23 -44 c-48 -90 -24 -203 55 -260
l38 -28 -18 -34 c-56 -104 14 -190 155 -190 113 0 171 72 147 181 -8 33 -6 38
32 69 89 75 111 220 43 293 l-23 25 61 7 c64 7 164 22 205 31 23 5 24 4 17
-54 -4 -32 0 -148 9 -257 8 -109 14 -199 13 -200 -2 -1 -79 -41 -173 -89 -177
-89 -289 -157 -335 -201 l-27 -26 -74 56 c-67 50 -285 167 -366 195 l-31 12 1
256 c0 142 -3 272 -7 290 -9 37 -5 38 52 18z m577 -80 c54 -32 65 -51 65 -110
0 -35 -7 -54 -33 -88 l-33 -43 -107 -3 c-96 -2 -111 0 -138 18 -76 55 -79 175
-6 223 68 44 179 45 252 3z m-52 -340 c15 -23 19 -58 8 -82 -10 -24 -14 -25
-88 -22 l-78 3 -3 37 c-2 29 2 41 23 61 23 21 33 23 78 19 29 -3 55 -10 60
-16z"/>
<path d="M4543 6001 c-157 -113 -288 -194 -406 -252 -37 -18 -67 -39 -67 -46
0 -25 44 -43 106 -43 35 0 74 -6 90 -15 37 -19 78 -19 107 0 l22 14 -4 -80 -3
-80 39 -37 c90 -86 293 -96 380 -19 97 86 102 259 10 346 l-26 23 28 23 c15
13 35 39 46 58 18 34 18 37 1 82 -18 45 -17 47 0 61 18 13 17 15 -14 44 -29
27 -39 30 -95 30 l-62 0 -152 -109z m279 -8 c-6 -9 -17 -18 -26 -19 -9 -1 -14
2 -10 7 3 5 9 7 14 4 4 -3 10 2 14 10 3 8 8 15 11 15 3 0 2 -8 -3 -17z m-52
-27 c0 -2 -7 -7 -16 -10 -8 -3 -12 -2 -9 4 6 10 25 14 25 6z m-63 -34 c-15
-10 -24 -22 -20 -26 4 -4 -1 -4 -10 0 -16 6 -15 9 10 25 15 9 33 18 38 18 6 1
-2 -7 -18 -17z m-47 -37 c11 -13 10 -14 -4 -9 -9 3 -16 10 -16 15 0 13 6 11
20 -6z m-70 -35 c-8 -5 -22 -9 -30 -9 -10 0 -8 3 5 9 27 12 43 12 25 0z m47 4
c-3 -3 -12 -4 -19 -1 -8 3 -5 6 6 6 11 1 17 -2 13 -5z m-220 -133 c-1 -16 -5
-18 -20 -9 -15 7 -22 7 -29 -3 -8 -11 -9 -11 -5 1 2 8 14 14 26 13 11 -2 21 2
21 7 0 6 2 10 4 10 3 0 4 -9 3 -19z m282 -6 c45 -10 81 -58 81 -106 0 -81 -39
-109 -155 -109 -122 0 -152 27 -133 119 16 82 98 120 207 96z m-357 -27 c-14
-14 -44 -20 -36 -7 3 5 9 7 14 4 5 -3 11 -1 15 5 3 5 9 10 13 10 3 0 1 -5 -6
-12z"/>
<path d="M2684 5945 c-21 -21 -25 -34 -23 -71 2 -35 -1 -49 -15 -59 -10 -8
-15 -18 -11 -24 3 -6 0 -9 -8 -5 -16 6 -57 -44 -57 -69 0 -30 12 -47 34 -47
30 0 50 15 43 33 -4 12 -2 14 10 10 12 -5 14 -3 8 7 -5 9 -4 11 4 6 9 -6 9
-11 -1 -23 -9 -11 -13 -47 -13 -107 0 -80 3 -95 24 -125 36 -51 99 -74 202
-75 79 -1 88 1 122 27 52 39 61 61 61 150 1 65 3 76 16 70 8 -3 52 -8 98 -11
80 -4 142 9 142 29 0 5 9 9 19 9 26 0 39 56 19 77 -9 8 -55 29 -104 48 -49 18
-141 55 -204 82 -234 101 -317 117 -366 68z m177 -108 c-10 -9 -11 -8 -5 6 3
10 9 15 12 12 3 -3 0 -11 -7 -18z m57 -12 c-3 -3 -9 2 -12 12 -6 14 -5 15 5 6
7 -7 10 -15 7 -18z m-121 -27 c-3 -8 -6 -5 -6 6 -1 11 2 17 5 13 3 -3 4 -12 1
-19z m-87 -38 c0 -4 -6 -12 -13 -18 -10 -8 -13 -6 -13 7 0 10 6 18 13 18 7 0
13 -4 13 -7z m310 -8 c18 -15 20 -19 7 -19 -10 0 -15 3 -12 6 3 3 -5 11 -17
18 -13 7 -18 12 -12 13 7 0 22 -8 34 -18z m104 -68 c5 -13 4 -14 -7 -6 -8 7
-18 8 -22 4 -5 -4 -5 -1 -1 6 10 17 23 15 30 -4z m-197 -38 c30 -27 37 -41 37
-71 0 -53 -23 -68 -100 -62 -96 7 -124 36 -104 109 11 40 38 56 93 57 29 1 45
-6 74 -33z m283 14 c0 -5 -5 -10 -11 -10 -5 0 -7 5 -4 10 3 6 8 10 11 10 2 0
4 -4 4 -10z"/>
<path d="M3902 4901 l-59 -49 -114 -7 c-106 -7 -119 -6 -167 15 -59 25 -77 19
-84 -29 -2 -20 5 -29 42 -48 42 -23 52 -24 175 -20 144 4 221 25 278 77 43 38
40 109 -5 110 -4 0 -34 -22 -66 -49z"/>
<path d="M6212 6235 c-189 -92 -272 -146 -349 -228 -75 -81 -96 -123 -89 -185
2 -26 5 -50 5 -54 2 -19 39 -5 49 18 10 20 268 324 276 324 17 0 234 104 252
121 22 21 35 79 17 79 -5 0 -77 -34 -161 -75z"/>
<path d="M6260 5240 c-9 -6 -10 -10 -3 -10 6 0 15 5 18 10 8 12 4 12 -15 0z"/>
<path d="M5135 4889 c-4 -6 -5 -12 -2 -15 2 -3 7 2 10 11 7 17 1 20 -8 4z"/>
<path d="M5059 4843 c-13 -16 -12 -17 4 -4 9 7 17 15 17 17 0 8 -8 3 -21 -13z"/>
<path d="M4990 4801 c0 -6 4 -13 10 -16 6 -3 7 1 4 9 -7 18 -14 21 -14 7z"/>
<path d="M4979 4753 c-13 -16 -12 -17 4 -4 9 7 17 15 17 17 0 8 -8 3 -21 -13z"/>
<path d="M6643 3645 c0 -8 4 -12 9 -9 5 3 6 10 3 15 -9 13 -12 11 -12 -6z"/>
<path d="M4650 3623 c0 -5 10 -18 23 -29 l22 -19 -20 25 c-11 14 -21 27 -22
29 -2 2 -3 0 -3 -6z"/>
<path d="M6475 3580 c-7 -11 -8 -11 23 -14 27 -3 28 0 3 14 -13 7 -22 7 -26 0z"/>
<path d="M6378 3558 c5 -5 16 -8 23 -6 8 3 3 7 -10 11 -17 4 -21 3 -13 -5z"/>
<path d="M5810 3321 c0 -10 19 -25 25 -20 1 2 -3 10 -11 17 -8 7 -14 8 -14 3z"/>
<path d="M5257 3269 c7 -7 15 -10 18 -7 3 3 -2 9 -12 12 -14 6 -15 5 -6 -5z"/>
<path d="M5163 3243 c0 -9 4 -10 14 -2 7 6 13 12 13 14 0 1 -6 2 -13 2 -8 0
-14 -6 -14 -14z"/>
<path d="M3425 3169 c-4 -6 -4 -13 -1 -16 3 -4 6 -1 6 5 0 7 5 12 11 12 6 0 8
-7 4 -17 -5 -14 -3 -15 6 -6 12 12 5 33 -11 33 -5 0 -12 -5 -15 -11z"/>
<path d="M5042 3051 c-11 -7 -11 -9 0 -14 9 -3 15 1 15 9 0 8 -1 14 -1 14 -1
0 -7 -4 -14 -9z"/>
<path d="M5801 2684 c0 -11 3 -14 6 -6 3 7 2 16 -1 19 -3 4 -6 -2 -5 -13z"/>
<path d="M5695 2470 c2 -27 10 -33 12 -10 1 11 -2 22 -6 24 -4 3 -7 -4 -6 -14z"/>
<path d="M5185 2241 c-3 -5 -2 -12 3 -15 5 -3 9 1 9 9 0 17 -3 19 -12 6z"/>
<path d="M2260 5200 c8 -5 20 -10 25 -10 6 0 3 5 -5 10 -8 5 -19 10 -25 10 -5
0 -3 -5 5 -10z"/>
<path d="M2177 5179 c7 -7 15 -10 18 -7 3 3 -2 9 -12 12 -14 6 -15 5 -6 -5z"/>
<path d="M2115 5131 c-3 -5 -2 -12 3 -15 5 -3 9 1 9 9 0 17 -3 19 -12 6z"/>
<path d="M2050 5116 c0 -2 7 -7 16 -10 8 -3 12 -2 9 4 -6 10 -25 14 -25 6z"/>
<path d="M2010 5036 c0 -2 8 -10 18 -17 15 -13 16 -12 3 4 -13 16 -21 21 -21
13z"/>
<path d="M3130 4061 c0 -6 4 -13 10 -16 6 -3 7 1 4 9 -7 18 -14 21 -14 7z"/>
<path d="M3004 3078 l-19 -23 23 19 c12 11 22 21 22 23 0 8 -8 2 -26 -19z"/>
<path d="M3712 2838 c-7 -7 -12 -16 -12 -21 0 -5 7 -1 16 8 9 9 14 18 12 20
-2 3 -10 -1 -16 -7z"/>
<path d="M3860 2797 c0 -10 8 -17 18 -17 9 0 13 4 7 8 -5 4 -13 11 -17 16 -5
5 -8 2 -8 -7z"/>
<path d="M3906 2792 c-3 -4 4 -9 15 -9 23 -2 25 3 4 10 -8 4 -16 3 -19 -1z"/>
<path d="M4640 2500 c0 -5 -7 -10 -15 -10 -8 0 -15 -4 -15 -9 0 -5 9 -7 20 -4
17 5 30 33 15 33 -3 0 -5 -4 -5 -10z"/>
<path d="M3707 2469 c7 -7 15 -10 18 -7 3 3 -2 9 -12 12 -14 6 -15 5 -6 -5z"/>
<path d="M3781 2454 c0 -11 3 -14 6 -6 3 7 2 16 -1 19 -3 4 -6 -2 -5 -13z"/>
<path d="M3825 2450 c-3 -5 -1 -10 4 -10 6 0 11 5 11 10 0 6 -2 10 -4 10 -3 0
-8 -4 -11 -10z"/>
<path d="M3940 2442 c0 -4 9 -8 20 -8 11 0 20 4 20 8 0 4 -9 8 -20 8 -11 0
-20 -4 -20 -8z"/>
<path d="M4290 2439 c0 -6 -4 -8 -9 -4 -5 3 -12 1 -16 -4 -3 -6 6 -8 22 -5 34
6 38 10 18 17 -8 4 -15 2 -15 -4z"/>
<path d="M4376 2442 c-3 -5 1 -9 9 -9 8 0 15 4 15 9 0 4 -4 8 -9 8 -6 0 -12
-4 -15 -8z"/>
<path d="M4680 2435 c0 -8 2 -15 4 -15 2 0 6 7 10 15 3 8 1 15 -4 15 -6 0 -10
-7 -10 -15z"/>
<path d="M4076 2432 c-3 -5 1 -9 9 -9 8 0 12 4 9 9 -3 4 -7 8 -9 8 -2 0 -6 -4
-9 -8z"/>
<path d="M4110 2430 c0 -5 5 -10 11 -10 5 0 7 5 4 10 -3 6 -8 10 -11 10 -2 0
-4 -4 -4 -10z"/>
<path d="M4168 2433 c7 -3 16 -2 19 1 4 3 -2 6 -13 5 -11 0 -14 -3 -6 -6z"/>
<path d="M3740 2400 c0 -5 5 -10 10 -10 6 0 10 5 10 10 0 6 -4 10 -10 10 -5 0
-10 -4 -10 -10z"/>
<path d="M3769 2385 c-1 -3 -3 -9 -4 -15 -1 -5 -3 -12 -4 -15 0 -3 -10 -1 -21
5 -15 8 -18 8 -14 -3 2 -7 15 -13 27 -13 17 0 23 6 25 23 1 20 -5 33 -9 18z"/>
<path d="M4180 2376 c0 -2 7 -7 16 -10 8 -3 12 -2 9 4 -6 10 -25 14 -25 6z"/>
<path d="M3791 2344 c0 -11 3 -14 6 -6 3 7 2 16 -1 19 -3 4 -6 -2 -5 -13z"/>
<path d="M4686 2085 c-10 -8 -23 -12 -27 -9 -5 3 -9 -2 -9 -10 0 -13 4 -13 30
2 16 9 30 20 30 25 0 9 -2 9 -24 -8z"/>
<path d="M4631 2067 c0 -10 -5 -15 -11 -12 -13 8 -12 -43 1 -70 7 -15 8 -9 3
20 -4 32 -3 38 7 28 7 -7 20 -13 28 -13 13 0 12 2 -1 13 -9 6 -18 21 -21 32
-4 17 -5 17 -6 2z"/>
<path d="M4688 2062 c-10 -2 -18 -8 -18 -13 0 -11 11 -11 30 1 18 11 11 18
-12 12z"/>
<path d="M3705 2040 c6 -17 4 -21 -6 -14 -12 6 -12 5 0 -9 14 -17 26 -24 17
-9 -2 4 -1 14 3 21 6 9 10 3 13 -18 4 -24 1 -31 -9 -27 -8 3 -11 2 -8 -3 3 -5
1 -12 -5 -16 -5 -3 -10 -10 -10 -16 0 -22 44 37 44 60 1 20 6 25 20 23 11 -2
15 1 11 8 -4 6 -14 9 -22 6 -8 -3 -24 -1 -35 5 -18 10 -19 8 -13 -11z"/>
<path d="M4685 2030 c-3 -6 1 -7 9 -4 18 7 21 14 7 14 -6 0 -13 -4 -16 -10z"/>
<path d="M3756 2005 c4 -8 8 -15 10 -15 2 0 4 7 4 15 0 8 -4 15 -10 15 -5 0
-7 -7 -4 -15z"/>
<path d="M4696 2003 c-6 -14 -5 -15 5 -6 7 7 10 15 7 18 -3 3 -9 -2 -12 -12z"/>
<path d="M4721 2004 c0 -11 3 -14 6 -6 3 7 2 16 -1 19 -3 4 -6 -2 -5 -13z"/>
<path d="M4150 2001 c0 -6 5 -13 10 -16 6 -4 8 -10 6 -14 -9 -14 12 -34 29
-28 9 4 14 11 10 16 -3 6 -13 7 -22 4 -10 -4 -14 -2 -9 5 3 6 2 13 -4 17 -6 4
-8 11 -5 16 4 5 1 9 -4 9 -6 0 -11 -4 -11 -9z"/>
<path d="M4645 1973 c-5 -15 -4 -16 6 -5 18 17 28 15 22 -6 -4 -15 1 -19 27
-19 24 0 28 3 16 9 -9 5 -21 6 -26 3 -6 -3 -10 -1 -10 4 0 6 10 11 23 12 21 1
21 1 -3 9 -39 12 -47 11 -55 -7z"/>
<path d="M3746 1965 c-16 -12 -17 -15 -4 -15 9 0 18 7 22 15 7 18 6 18 -18 0z"/>
<path d="M4650 1935 c0 -8 4 -15 10 -15 5 0 7 7 4 15 -4 8 -8 15 -10 15 -2 0
-4 -7 -4 -15z"/>
<path d="M3713 1925 c-9 -10 -6 -12 12 -12 13 0 26 6 30 15 4 12 3 12 -9 3 -8
-7 -16 -8 -18 -2 -1 5 -8 3 -15 -4z"/>
<path d="M4151 1918 c-1 -10 4 -18 10 -18 5 0 7 -5 3 -12 -4 -6 -3 -8 4 -4 5
3 13 0 15 -6 3 -8 6 -6 6 5 1 9 5 17 9 17 5 0 9 7 9 15 0 8 -4 15 -9 15 -4 0
-8 -7 -8 -15 0 -8 -4 -15 -10 -15 -5 0 -7 8 -4 18 5 13 4 14 -4 3 -8 -11 -10
-11 -15 0 -4 10 -6 9 -6 -3z"/>
<path d="M4680 1915 c-11 -13 -8 -15 21 -14 28 1 30 3 9 7 -23 4 -24 5 -5 13
15 6 16 8 4 8 -9 1 -22 -6 -29 -14z"/>
<path d="M3350 1896 c0 -2 8 -10 18 -17 15 -13 16 -12 3 4 -13 16 -21 21 -21
13z"/>
<path d="M4678 1878 c16 -16 62 -18 62 -3 0 15 -33 16 -42 1 -5 -8 -8 -7 -8 2
0 6 -5 12 -12 12 -9 0 -9 -3 0 -12z"/>
<path d="M5206 1861 c-4 -5 3 -7 14 -4 23 6 26 13 6 13 -8 0 -17 -4 -20 -9z"/>
<path d="M3700 1838 c-12 -22 -12 -22 6 -6 10 10 15 20 12 24 -4 3 -12 -5 -18
-18z"/>
<path d="M4162 1851 c-15 -11 -12 -62 5 -79 16 -16 16 -16 10 0 -3 9 -1 19 6
21 7 2 5 3 -4 2 -11 -2 -15 5 -15 21 2 23 16 47 16 26 0 -7 4 -12 8 -12 5 0 9
6 9 13 0 14 -20 18 -35 8z"/>
<path d="M4750 1830 c0 -5 5 -10 11 -10 5 0 7 5 4 10 -3 6 -8 10 -11 10 -2 0
-4 -4 -4 -10z"/>
<path d="M3630 1812 c0 -5 7 -9 15 -9 8 0 12 4 9 9 -3 4 -9 8 -15 8 -5 0 -9
-4 -9 -8z"/>
<path d="M5040 1809 c0 -11 -38 -17 -47 -8 -6 6 -10 4 -10 -5 0 -16 31 -13 80
9 l32 13 -27 -1 c-16 -1 -28 -4 -28 -8z"/>
<path d="M4896 1791 c9 -9 54 -8 48 0 -3 5 -16 8 -29 7 -13 -1 -22 -5 -19 -7z"/>
<path d="M4150 1735 c0 -8 5 -17 10 -20 6 -4 9 -1 8 7 -2 7 4 12 12 10 8 -2
11 0 7 4 -13 14 -37 13 -37 -1z"/>
<path d="M4181 1708 c0 -9 -7 -18 -13 -21 -7 -2 -11 -7 -8 -10 11 -12 32 11
27 29 -4 15 -5 16 -6 2z"/>
<path d="M5897 1009 c7 -7 15 -10 18 -7 3 3 -2 9 -12 12 -14 6 -15 5 -6 -5z"/>
<path d="M5368 853 c7 -3 16 -2 19 1 4 3 -2 6 -13 5 -11 0 -14 -3 -6 -6z"/>
</g>
</svg>
